<?xml version="1.0" standalone="no"?><!DOCTYPE svg PUBLIC "-//W3C//DTD SVG 1.1//EN" "http://www.w3.org/Graphics/SVG/1.1/DTD/svg11.dtd"><svg t="1736092343459" class="icon" viewBox="0 0 1024 1024" version="1.1" xmlns="http://www.w3.org/2000/svg" p-id="11407" xmlns:xlink="http://www.w3.org/1999/xlink" width="200" height="200"><path d="M898.099712 819.2a388.4544 388.4544 0 0 1 117.2992 204.8H8.602112a388.4544 388.4544 0 0 1 117.2992-204.8A387.84 387.84 0 0 1 0.000512 532.736v-143.872C0.000512 174.1312 174.080512 0 388.864512 0h246.272C849.869312 0 1024.000512 174.08 1024.000512 388.864v143.872A387.84 387.84 0 0 1 898.099712 819.2zM281.600512 152.576a51.2 51.2 0 0 0-51.2 51.2v136.192a51.2 51.2 0 1 0 102.4 0V203.776a51.2 51.2 0 0 0-51.2-51.2z m384 0a51.2 51.2 0 0 0-51.2 51.2v136.192a51.2 51.2 0 0 0 102.4 0V203.776a51.2 51.2 0 0 0-51.2-51.2zM333.363712 494.4384c-0.3584 4.352-0.5632 8.704-0.5632 13.1584 0 79.872 63.0272 144.5888 140.8 144.5888S614.400512 587.4176 614.400512 507.5456c0-4.4544-0.2048-8.8064-0.5632-13.1584H333.312512z" fill="#1E1D27" p-id="11408"></path></svg>