<?xml version="1.0" standalone="no"?><!DOCTYPE svg PUBLIC "-//W3C//DTD SVG 1.1//EN" "http://www.w3.org/Graphics/SVG/1.1/DTD/svg11.dtd"><svg t="1728451762995" class="icon" viewBox="0 0 1032 1024" version="1.1" xmlns="http://www.w3.org/2000/svg" p-id="10127" xmlns:xlink="http://www.w3.org/1999/xlink" width="201.5625" height="200"><path d="M559.071273 913.347702C294.635915 913.347702 0 816.119784 0 676.60335c0-16.488267 3.674086-32.894887 10.923423-48.772954a17.188706 17.188706 0 1 1 31.274851 14.275221C37.007285 653.467352 34.377413 665.074026 34.377413 676.60335c0 48.381912 57.126666 98.779199 156.739517 138.287441 102.698224 40.72864 236.813106 64.083795 367.954343 64.083795a17.188706 17.188706 0 0 1 0 34.373116zM757.777017 881.780643a17.193004 17.193004 0 0 1-3.974889-33.909021c148.355726-35.391547 244.217142-102.620875 244.217142-171.263974 0-14.068956-3.910431-28.198073-11.619565-41.996307a17.188706 17.188706 0 0 1 30.011481-16.767584c10.605432 18.984926 15.985497 38.760533 15.985497 58.768188 0 87.756941-101.164132 164.276765-270.623292 204.704602a17.751637 17.751637 0 0 1-3.996374 0.464096z" fill="#D3D3ED" p-id="10128"></path><path d="M418.050828 1024a17.188706 17.188706 0 0 1-10.622621-30.711921l124.278645-97.507235-111.632054-92.707288a17.188706 17.188706 0 1 1 21.967167-26.444825l128.012891 106.312149a17.188706 17.188706 0 0 1-0.373854 26.749925l-141.02904 110.652298a17.158626 17.158626 0 0 1-10.601134 3.656897z" fill="#D3D3ED" p-id="10129"></path><path d="M471.920234 136.577165H179.742304c-27.360124 0-49.744117 22.379696-49.744117 49.739819v417.835969c0 27.360124 22.383993 49.744117 49.744117 49.744116h681.476348c27.360124 0 49.744117-22.383993 49.744117-49.744116V186.316984c0-27.360124-22.383993-49.739819-49.744117-49.739819h-63.894719" fill="#9898B3" p-id="10130"></path><path d="M861.218652 671.085776H179.742304c-36.90845 0-66.932823-30.024373-66.932823-66.932823V186.316984c0-36.904153 30.024373-66.928526 66.932823-66.928526h292.17793a17.188706 17.188706 0 0 1 0 34.377413H179.742304c-17.953604 0-32.55541 14.601806-32.55541 32.551113v417.835969c0 17.953604 14.601806 32.55541 32.55541 32.55541h681.476348c17.953604 0 32.55541-14.601806 32.555411-32.55541V186.316984c0-17.949307-14.601806-32.551113-32.555411-32.551113h-63.894719a17.188706 17.188706 0 0 1 0-34.377413h63.894719c36.90845 0 66.932823 30.024373 66.932823 66.928526v417.835969c0 36.90845-30.024373 66.932823-66.932823 66.932823z" fill="#6E6E96" p-id="10131"></path><path d="M129.998187 604.161547c0 27.351529 22.383993 49.744117 49.744117 49.744117H270.936986c27.360124 0 49.739819-22.392587 49.739819-49.744117V186.316984c0-27.360124-22.379696-49.739819-49.739819-49.739819H179.742304c-27.360124 0-49.744117 22.379696-49.744117 49.739819v417.844563z" fill="#9898B3" p-id="10132"></path><path d="M136.624433 235.085641h39.796153v324.986874h-39.796153z" fill="#F0F0FF" opacity=".25" p-id="10133"></path><path d="M270.936986 671.09437H179.742304c-36.90845 0-66.932823-30.024373-66.932823-66.932823V186.316984c0-36.904153 30.024373-66.928526 66.932823-66.928526H270.936986c36.904153 0 66.928526 30.024373 66.928526 66.928526v417.844563c0 36.90845-30.024373 66.932823-66.928526 66.932823zM179.742304 153.765871c-17.953604 0-32.55541 14.601806-32.55541 32.551113v417.844563c0 17.953604 14.601806 32.55541 32.55541 32.55541H270.936986c17.949307 0 32.551113-14.601806 32.551113-32.55541V186.316984c0-17.949307-14.601806-32.551113-32.551113-32.551113H179.742304z" fill="#6E6E96" p-id="10134"></path><path d="M861.218652 136.577165H179.742304c-27.360124 0-49.744117 22.379696-49.744117 49.739819v38.137442h780.964582v-38.137442c0-27.355826-22.383993-49.739819-49.744117-49.739819z" fill="#BBBBCC" p-id="10135"></path><path d="M136.993991 199.883171h766.723738v11.546513H136.993991z" fill="#6E6E96" opacity=".2" p-id="10136"></path><path d="M136.624433 231.918622h767.703495v14.090442H136.624433z" fill="#6E6E96" opacity=".15" p-id="10137"></path><path d="M185.8357 174.336456h669.048914c26.857354 0 48.837412 20.965925 48.837412 46.594286v-27.957431c0-34.334441-21.980058-46.594286-48.837412-46.594287H185.8357c-26.857354 0-48.837412 20.970222-48.837412 46.594287v27.957431C136.993991 195.306677 158.974049 174.336456 185.8357 174.336456z" fill="#F0F0FF" opacity=".2" p-id="10138"></path><path d="M910.962769 241.643133H129.998187a17.188706 17.188706 0 0 1-17.188706-17.188707v-38.137442c0-36.904153 30.024373-66.928526 66.932823-66.928526h681.476348c36.90845 0 66.932823 30.024373 66.932823 66.928526v38.137442a17.188706 17.188706 0 0 1-17.188706 17.188707z m-763.775875-34.377413h746.587169v-20.948736c0-17.949307-14.601806-32.551113-32.555411-32.551113H179.742304c-17.953604 0-32.55541 14.601806-32.55541 32.551113v20.948736z" fill="#6E6E96" p-id="10139"></path><path d="M129.998187 604.161547c0 27.351529 22.383993 49.744117 49.744117 49.744117h681.476348c27.360124 0 49.744117-22.392587 49.744117-49.744117v-38.137443H129.998187v38.137443z" fill="#BBBBCC" p-id="10140"></path><path d="M861.218652 671.09437H179.742304c-36.90845 0-66.932823-30.024373-66.932823-66.932823v-38.137443a17.188706 17.188706 0 0 1 17.188706-17.188706h780.964582a17.188706 17.188706 0 0 1 17.188706 17.188706v38.137443c0 36.90845-30.024373 66.932823-66.932823 66.932823zM147.186894 583.212811v20.948736c0 17.953604 14.601806 32.55541 32.55541 32.55541h681.476348c17.953604 0 32.55541-14.601806 32.555411-32.55541v-20.948736H147.186894z" fill="#6E6E96" p-id="10141"></path><path d="M345.548864 255.957028h16.578507v16.582805h-16.578507zM389.074966 255.957028H405.653473v16.582805h-16.578507zM432.601068 255.957028h16.57421v16.582805h-16.57421zM476.122872 255.957028h16.582805v16.582805h-16.582805zM519.648974 255.957028h16.578508v16.582805h-16.578508zM563.175076 255.957028h16.578508v16.582805h-16.578508zM606.701178 255.957028h16.578508v16.582805h-16.578508zM650.222983 255.957028h16.578508v16.582805h-16.578508zM693.749085 255.957028h16.57421v16.582805h-16.57421zM737.275187 255.957028h16.57421v16.582805h-16.57421zM780.801289 255.957028h16.565616v16.582805h-16.565616zM824.318797 255.957028h16.582804v16.582805h-16.582804zM867.849196 255.957028h16.578507v16.582805h-16.578507z" fill="#6E6E96" opacity=".37" p-id="10142"></path><path d="M345.548864 300.725014h16.578507v16.582805h-16.578507zM389.074966 300.725014H405.653473v16.582805h-16.578507zM432.601068 300.725014h16.57421v16.582805h-16.57421zM476.122872 300.725014h16.582805v16.582805h-16.582805zM519.648974 300.725014h16.578508v16.582805h-16.578508zM563.175076 300.725014h16.578508v16.582805h-16.578508zM606.701178 300.725014h16.578508v16.582805h-16.578508zM650.222983 300.725014h16.578508v16.582805h-16.578508zM693.749085 300.725014h16.57421v16.582805h-16.57421zM737.275187 300.725014h16.57421v16.582805h-16.57421zM780.801289 300.725014h16.565616v16.582805h-16.565616zM824.318797 300.725014h16.582804v16.582805h-16.582804zM867.849196 300.725014h16.578507v16.582805h-16.578507z" fill="#6E6E96" opacity=".37" p-id="10143"></path><path d="M345.548864 345.497297h16.578507v16.582805h-16.578507zM389.074966 345.497297H405.653473v16.582805h-16.578507zM432.601068 345.497297h16.57421v16.582805h-16.57421zM476.122872 345.497297h16.582805v16.582805h-16.582805zM519.648974 345.497297h16.578508v16.582805h-16.578508zM563.175076 345.497297h16.578508v16.582805h-16.578508zM606.701178 345.497297h16.578508v16.582805h-16.578508zM650.222983 345.497297h16.578508v16.582805h-16.578508zM693.749085 345.497297h16.57421v16.582805h-16.57421zM737.275187 345.497297h16.57421v16.582805h-16.57421zM780.801289 345.497297h16.565616v16.582805h-16.565616zM824.318797 345.497297h16.582804v16.582805h-16.582804zM867.849196 345.497297h16.578507v16.582805h-16.578507z" fill="#6E6E96" opacity=".37" p-id="10144"></path><path d="M345.548864 390.265284h16.578507v16.582804h-16.578507zM389.074966 390.265284H405.653473v16.582804h-16.578507zM432.601068 390.265284h16.57421v16.582804h-16.57421zM476.122872 390.265284h16.582805v16.582804h-16.582805zM519.648974 390.265284h16.578508v16.582804h-16.578508zM563.175076 390.265284h16.578508v16.582804h-16.578508zM606.701178 390.265284h16.578508v16.582804h-16.578508zM650.222983 390.265284h16.578508v16.582804h-16.578508zM693.749085 390.265284h16.57421v16.582804h-16.57421zM737.275187 390.265284h16.57421v16.582804h-16.57421zM780.801289 390.265284h16.565616v16.582804h-16.565616zM824.318797 390.265284h16.582804v16.582804h-16.582804zM867.849196 390.265284h16.578507v16.582804h-16.578507z" fill="#6E6E96" opacity=".37" p-id="10145"></path><path d="M345.548864 435.03327h16.578507v16.57421h-16.578507zM389.074966 435.03327H405.653473v16.57421h-16.578507zM432.601068 435.03327h16.57421v16.57421h-16.57421zM476.122872 435.03327h16.582805v16.57421h-16.582805zM519.648974 435.03327h16.578508v16.57421h-16.578508zM563.175076 435.03327h16.578508v16.57421h-16.578508zM606.701178 435.03327h16.578508v16.57421h-16.578508zM650.222983 435.03327h16.578508v16.57421h-16.578508zM693.749085 435.03327h16.57421v16.57421h-16.57421zM737.275187 435.03327h16.57421v16.57421h-16.57421zM780.801289 435.03327h16.565616v16.57421h-16.565616zM824.318797 435.03327h16.582804v16.57421h-16.582804zM867.849196 435.03327h16.578507v16.57421h-16.578507z" fill="#6E6E96" opacity=".37" p-id="10146"></path><path d="M345.548864 479.80985h16.578507v16.57421h-16.578507zM389.074966 479.80985H405.653473v16.57421h-16.578507zM432.601068 479.80985h16.57421v16.57421h-16.57421zM476.122872 479.80985h16.582805v16.57421h-16.582805zM519.648974 479.80985h16.578508v16.57421h-16.578508zM563.175076 479.80985h16.578508v16.57421h-16.578508zM606.701178 479.80985h16.578508v16.57421h-16.578508zM650.222983 479.80985h16.578508v16.57421h-16.578508zM693.749085 479.80985h16.57421v16.57421h-16.57421zM737.275187 479.80985h16.57421v16.57421h-16.57421zM780.801289 479.80985h16.565616v16.57421h-16.565616zM824.318797 479.80985h16.582804v16.57421h-16.582804zM867.849196 479.80985h16.578507v16.57421h-16.578507z" fill="#6E6E96" opacity=".37" p-id="10147"></path><path d="M345.548864 524.582133h16.578507v16.565616h-16.578507zM389.074966 524.582133H405.653473v16.565616h-16.578507zM432.601068 524.582133h16.57421v16.565616h-16.57421zM476.122872 524.582133h16.582805v16.565616h-16.582805zM519.648974 524.582133h16.578508v16.565616h-16.578508zM563.175076 524.582133h16.578508v16.565616h-16.578508zM606.701178 524.582133h16.578508v16.565616h-16.578508zM650.222983 524.582133h16.578508v16.565616h-16.578508zM693.749085 524.582133h16.57421v16.565616h-16.57421zM737.275187 524.582133h16.57421v16.565616h-16.57421zM780.801289 524.582133h16.565616v16.565616h-16.565616zM824.318797 524.582133h16.582804v16.565616h-16.582804zM867.849196 524.582133h16.578507v16.565616h-16.578507z" fill="#6E6E96" opacity=".37" p-id="10148"></path><path d="M773.337093 224.454426L722.011616 64.229899C713.722362 38.360896 686.082922 17.188706 660.600665 17.188706H561.7699c-25.486555 0-52.253668 21.464397-59.481519 47.698661L458.293887 224.450129" fill="#CCCCDE" p-id="10149"></path><path d="M773.337093 241.643133l-315.043206-0.004297a17.180112 17.180112 0 0 1-16.569913-21.760903l43.994494-159.562762C489.830866 45.399671 502.339947 0 561.7699 0h98.826468c52.777923 0 69.670125 33.664082 77.783194 58.987343l51.325477 160.224528a17.188706 17.188706 0 0 1-16.367946 22.431262z m-292.474435-34.38171l268.92161 0.004297-44.144895-137.793266C698.518951 47.247457 688.867493 34.377413 660.600665 34.377413H561.7699c-27.80703 0-36.792426 12.86145-42.911606 35.077853l-37.995636 137.806157z" fill="#6E6E96" p-id="10150"></path><path d="M463.270017 225.700608l13.25679-57.126666-15.749152 57.126666h2.492362z m261.225367-160.224528c-8.284957-25.869003-35.920099-47.041192-61.402357-47.041192h-29.452848c21.442911 0 44.71642 21.163595 51.699332 47.041192l43.233894 160.224528h47.256051l-51.334072-160.224528z" fill="#6E6E96" opacity=".2" p-id="10151"></path><path d="M611.084299 378.366401m-223.435996 0a223.435996 223.435996 0 1 0 446.871991 0 223.435996 223.435996 0 1 0-446.871991 0Z" fill="#DADAED" p-id="10152"></path><path d="M611.084299 618.991104c-132.679625 0-240.624702-107.945077-240.624703-240.629s107.945077-240.624702 240.624703-240.624702 240.624702 107.945077 240.624702 240.624702-107.945077 240.628999-240.624702 240.629z m0-446.871992c-113.724779 0-206.247289 92.52251-206.24729 206.247289s92.52251 206.251586 206.24729 206.251587c113.724779 0 206.247289-92.52251 206.247289-206.251587s-92.52251-206.247289-206.247289-206.247289z" fill="#6E6E96" p-id="10153"></path><path d="M611.814819 377.446806m-134.677813 0a134.677812 134.677812 0 1 0 269.355625 0 134.677812 134.677812 0 1 0-269.355625 0Z" fill="#C5A6E6" p-id="10154"></path><path d="M611.814819 529.313325c-83.739081 0-151.866519-68.127438-151.866519-151.866519s68.127438-151.866519 151.866519-151.866519 151.866519 68.127438 151.866518 151.866519-68.127438 151.866519-151.866518 151.866519z m0-269.355625c-64.784235 0-117.489106 52.704871-117.489106 117.489106s52.704871 117.489106 117.489106 117.489106 117.489106-52.704871 117.489106-117.489106-52.704871-117.489106-117.489106-117.489106z" fill="#6E6E96" p-id="10155"></path><path d="M610.121731 377.786283m-80.322825 0a80.322825 80.322825 0 1 0 160.64565 0 80.322825 80.322825 0 1 0-160.64565 0Z" fill="#F0F0FF" opacity=".41" p-id="10156"></path><path d="M602.13328 355.681606a12.904421 12.904421 0 1 1 0 25.795951 12.904421 12.904421 0 0 1 0-25.795951z" fill="#F0F0FF" p-id="10157"></path><path d="M287.515493 224.454426h33.165609v334.939135h-33.165609z" fill="#6E6E96" opacity=".2" p-id="10158"></path><path d="M246.271192 231.708061h74.405613v327.676906H246.271192z" fill="#6E6E96" opacity=".38" p-id="10159"></path><path d="M882.777588 246.009064v373.046497a49.310102 49.310102 0 0 1-21.558936 5.001914H179.742304c-27.360124 0-49.744117-22.383993-49.744117-49.744117v29.848189c0 27.351529 22.383993 49.744117 49.744117 49.744117h681.476348c20.248296 0 37.754994-12.281331 45.502804-29.753651h4.241313v-378.151543l-28.185181 0.008594z" fill="#6E6E96" opacity=".2" p-id="10160"></path><path d="M581.102897 301.008628c9.290496 9.80186-4.206936 19.865848-18.873199 33.754322-14.653372 13.892772-24.910733 26.358881-34.201229 16.565616-9.29909-9.810454-4.94605-29.014537 9.707322-42.911606 14.657669-13.888475 34.072313-17.205895 43.367106-7.408332z" fill="#F0F0FF" p-id="10161"></path></svg>