<?xml version="1.0" standalone="no"?><!DOCTYPE svg PUBLIC "-//W3C//DTD SVG 1.1//EN" "http://www.w3.org/Graphics/SVG/1.1/DTD/svg11.dtd"><svg t="1728399795674" class="icon" viewBox="0 0 1024 1024" version="1.1" xmlns="http://www.w3.org/2000/svg" p-id="5175" xmlns:xlink="http://www.w3.org/1999/xlink" width="200" height="200"><path d="M73.14432 71.68h292.56704C446.50496 71.68 512 137.39008 512 218.44992v660.48C512 919.45984 479.25248 952.32 438.85568 952.32H73.14432C32.74752 952.32 0 919.45984 0 878.92992V145.07008C0 104.54016 32.74752 71.68 73.14432 71.68z" fill="#CF5A1A" p-id="5176"></path><path d="M0 184.32h950.85568A73.14432 73.14432 0 0 1 1024 257.46432v621.71136A73.14432 73.14432 0 0 1 950.85568 952.32H73.14432A73.14432 73.14432 0 0 1 0 879.17568V184.32z" fill="#FF7A45" p-id="5177"></path><path d="M269.76256 617.80992a54.67136 54.67136 0 0 1 54.71232 54.62016A54.67136 54.67136 0 0 1 269.7728 727.04 54.67136 54.67136 0 0 1 215.04 672.43008a54.67136 54.67136 0 0 1 54.72256-54.62016z m492.47232 18.20672A36.44416 36.44416 0 0 1 798.72 672.43008a36.44416 36.44416 0 0 1-36.48512 36.4032h-291.84a36.44416 36.44416 0 0 1-36.47488-36.4032 36.44416 36.44416 0 0 1 36.48512-36.41344h291.84zM269.76256 399.36a54.67136 54.67136 0 0 1 54.71232 54.60992 54.67136 54.67136 0 0 1-54.71232 54.62016A54.67136 54.67136 0 0 1 215.04 453.96992 54.67136 54.67136 0 0 1 269.76256 399.36z m492.47232 18.20672A36.44416 36.44416 0 0 1 798.72 453.96992a36.44416 36.44416 0 0 1-36.48512 36.41344h-291.84a36.44416 36.44416 0 0 1-36.47488-36.41344 36.44416 36.44416 0 0 1 36.48512-36.4032h291.84z" fill="#FFBB96" p-id="5178"></path></svg>