<?xml version="1.0" standalone="no"?><!DOCTYPE svg PUBLIC "-//W3C//DTD SVG 1.1//EN" "http://www.w3.org/Graphics/SVG/1.1/DTD/svg11.dtd"><svg t="1728453405075" class="icon" viewBox="0 0 1024 1024" version="1.1" xmlns="http://www.w3.org/2000/svg" p-id="14848" xmlns:xlink="http://www.w3.org/1999/xlink" width="200" height="200"><path d="M1015.2104 553.6a24.08 24.08 0 0 0-15.296-14.528L750.2504 462.304V144.752a22.144 22.144 0 0 0-8.368-18.08 24.08 24.08 0 0 0-15.296-14.496L446.4904 26.672a27.696 27.696 0 0 0-17.584 0.784l-206.768 94.4c-9.088 4.32-14.784 13.6-14.512 23.68V456.16a9.696 9.696 0 0 0 0.8 4.576L14.5224 549.248c-9.12 4.32-14.8 13.6-14.512 23.68v309.84a24.512 24.512 0 0 0 17.568 23.68l296.128 86.992c2.24 0.64 4.56 0.896 6.88 0.8h0.768a11.552 11.552 0 0 0 14.512 6.848l184.736-88.512 274.032 80.928c2.224 0.64 4.544 0.896 6.864 0.784h0.784a11.568 11.568 0 0 0 14.512 6.864l198.688-94.656c4.832-2.608 7.984-7.488 8.368-12.96V572.208a19.52 19.52 0 0 0-8.656-18.608zM441.2584 75.008l209.904 64.848-138.912 63.344-93.152-27.152-119.04-36.624 141.2-64.416z m-185.456 103.808l148.848 43.52 98.448 30.528v257.232l-247.296-72.256v-259.04z m40.464 758.672L48.9704 865.248V606.336l148.848 43.52 98.448 30.544v257.232-0.128z m8.368-307.088l-93.088-27.456-119.04-36.608 141.2-64.128 209.472 65.392-138.544 62.8z m472.432 307.088L542.7784 868.8V609.888l135.232 40.048 98.448 30.528v257.216l0.608-0.16z m8.368-307.088l-93.088-27.456-119.104-36.128 140.896-64.128 209.904 64.848-138.608 62.88z" fill="#000000" p-id="14849"></path></svg>