<?xml version="1.0" standalone="no"?><!DOCTYPE svg PUBLIC "-//W3C//DTD SVG 1.1//EN" "http://www.w3.org/Graphics/SVG/1.1/DTD/svg11.dtd"><svg t="1736092030628" class="icon" viewBox="0 0 1024 1024" version="1.1" xmlns="http://www.w3.org/2000/svg" p-id="8214" xmlns:xlink="http://www.w3.org/1999/xlink" width="200" height="200"><path d="M567.727277 135.953782v201.842028h199.854994l-199.854994-201.842028z m-68.34946 656.059978H267.978655v-50.691952H508.274311a240.927894 240.927894 0 0 1 58.301389-100.503285H267.978655v-50.759692h299.726042v49.427476a241.379493 241.379493 0 0 1 172.917133-72.842867c9.099713 0 18.063947 0.632238 26.915281 1.580595v-180.210452H517.780463V136.269901H129.58624a61.34968 61.34968 0 0 0-61.46258 61.25936v684.488115a61.37226 61.37226 0 0 0 61.46258 61.25936h409.78064a240.702095 240.702095 0 0 1-40.86968-134.508665c0.02258-5.599824 0.541918-11.199647 0.880617-16.754311zM267.978655 438.773275h299.726042v50.759691H267.978655v-50.759691z m577.843087 340.595722h-75.733098v-75.733098a29.353914 29.353914 0 0 0-29.331334-29.353914h-0.18064c-16.234972 0-29.331334 13.118942-29.331334 29.353914v75.733098h-75.733098c-16.234972 0-29.353914 13.118942-29.353914 29.353914v0.180639c0 16.189813 13.118942 29.308754 29.353914 29.308754h75.733098v75.755678c0 16.189813 13.096362 29.331334 29.331334 29.331334h0.18064a29.353914 29.353914 0 0 0 29.331334-29.331334v-75.755678h75.733098c16.234972 0 29.331334-13.118942 29.331334-29.308754v-0.180639c0-16.234972-13.096362-29.353914-29.331334-29.353914z m-105.177332-185.810276c-118.838192 0-215.20935 96.371158-215.209349 215.20935s96.393738 215.20935 215.209349 215.209349c118.860772 0 215.20935-96.371158 215.20935-215.209349s-96.371158-215.20935-215.20935-215.20935z m0 403.525998a188.294068 188.294068 0 0 1-188.294068-188.316648 188.316648 188.316648 0 1 1 376.610716 0 188.271488 188.271488 0 0 1-188.316648 188.316648z" fill="#1F3645" p-id="8215"></path></svg>