<?xml version="1.0" standalone="no"?><!DOCTYPE svg PUBLIC "-//W3C//DTD SVG 1.1//EN" "http://www.w3.org/Graphics/SVG/1.1/DTD/svg11.dtd"><svg t="1736092146386" class="icon" viewBox="0 0 1024 1024" version="1.1" xmlns="http://www.w3.org/2000/svg" p-id="9439" xmlns:xlink="http://www.w3.org/1999/xlink" width="200" height="200"><path d="M732.16 660.48m-281.6 0a281.6 281.6 0 1 0 563.2 0 281.6 281.6 0 1 0-563.2 0Z" fill="#FED847" p-id="9440"></path><path d="M868.95616 921.36448H114.03264a97.792 97.792 0 0 1-97.536-97.85344V444.84608a20.66432 20.66432 0 0 1 41.3184-0.06144V823.5008a56.39168 56.39168 0 0 0 56.22784 56.41216H868.9664a56.38144 56.38144 0 0 0 56.2176-56.41216V465.5616a20.66432 20.66432 0 1 1 41.30816 0v357.94944a97.81248 97.81248 0 0 1-97.536 97.85344zM493.50656 683.4688a156.94848 156.94848 0 0 1-92.2624-29.8496L45.19936 378.37824a20.6848 20.6848 0 0 1 25.21088-32.8192l355.5328 274.86208a116.2752 116.2752 0 0 0 133.45792 1.32096L913.1008 365.88544a20.6848 20.6848 0 0 1 24.15616 33.60768L583.13728 655.64672a158.26944 158.26944 0 0 1-89.63072 27.82208zM491.52 838.48192a20.71552 20.71552 0 0 1-11.47904-37.94944L665.9072 676.22912a20.6848 20.6848 0 0 1 22.89664 34.46784l-185.856 124.3136a20.41856 20.41856 0 0 1-11.42784 3.47136z m165.2224 0a20.70528 20.70528 0 0 1-11.47904-37.94944l185.86624-124.30336a20.70528 20.70528 0 0 1 22.89664 34.42688L668.14976 834.9696a20.44928 20.44928 0 0 1-11.40736 3.51232z m185.84576-476.50816a20.6848 20.6848 0 0 1-20.65408-20.71552V204.8l-91.136-91.4432H181.7088v227.8912a20.66432 20.66432 0 0 1-41.30816 0.91136V92.63104a20.6848 20.6848 0 0 1 20.65408-20.71552H739.328c5.46816 0 10.73152 2.18112 14.592 6.07232l103.26016 103.58784c3.88096 3.8912 6.06208 9.1648 6.05184 14.65344v145.01888a20.6848 20.6848 0 0 1-20.64384 20.72576c-0.01024 0-0.01024 0 0 0zM532.80768 216.94464H243.712a20.72576 20.72576 0 0 1 0-41.44128h289.1264a20.736 20.736 0 0 1 20.24448 21.1968 20.736 20.736 0 0 1-20.2752 20.24448z m0 82.87232H243.712a20.72576 20.72576 0 0 1 0-41.44128h289.1264a20.736 20.736 0 1 1-0.03072 41.44128z" fill="" p-id="9441"></path></svg>