<?xml version="1.0" standalone="no"?><!DOCTYPE svg PUBLIC "-//W3C//DTD SVG 1.1//EN" "http://www.w3.org/Graphics/SVG/1.1/DTD/svg11.dtd"><svg t="1728402276168" class="icon" viewBox="0 0 1024 1024" version="1.1" xmlns="http://www.w3.org/2000/svg" p-id="7291" xmlns:xlink="http://www.w3.org/1999/xlink" width="200" height="200"><path d="M853.333333 874.666667H170.666667c-46.933333 0-85.333333-38.4-85.333334-85.333334V234.666667c0-46.933333 38.4-85.333333 85.333334-85.333334h682.666666c46.933333 0 85.333333 38.4 85.333334 85.333334v554.666666c0 46.933333-38.4 85.333333-85.333334 85.333334z" fill="#F57C00" p-id="7292"></path><path d="M746.666667 341.333333m-64 0a64 64 0 1 0 128 0 64 64 0 1 0-128 0Z" fill="#FFF9C4" p-id="7293"></path><path d="M426.666667 341.333333L192 682.666667h469.333333z" fill="#942A09" p-id="7294"></path><path d="M661.333333 469.333333l-170.666666 213.333334h341.333333z" fill="#BF360C" p-id="7295"></path></svg>