<?xml version="1.0" standalone="no"?><!DOCTYPE svg PUBLIC "-//W3C//DTD SVG 1.1//EN" "http://www.w3.org/Graphics/SVG/1.1/DTD/svg11.dtd"><svg t="1736155187709" class="icon" viewBox="0 0 1416 1024" version="1.1" xmlns="http://www.w3.org/2000/svg" p-id="25016" xmlns:xlink="http://www.w3.org/1999/xlink" width="276.5625" height="200"><path d="M760.663149 467.270809l622.679149 245.651063c31.003234 13.246638 31.003234 32.768 0 45.883915l-622.679149 245.781787c-31.025021 13.246638-83.57583 13.246638-114.731575 0L23.274213 758.805787c-31.025021-13.246638-31.025021-32.768 0-45.883915l622.657361-245.651063c31.025021-11.372936 83.57583-11.372936 114.731575 0z" fill="#7890FA" p-id="25017"></path><path d="M760.663149 450.79966l622.679149 245.672851c31.003234 13.246638 31.003234 32.768 0 45.883915l-622.679149 246.065021c-31.025021 13.094128-83.57583 13.094128-114.731575 0L23.274213 742.617872c-31.025021-12.985191-31.025021-32.768 0-45.883915l622.657361-245.781787c31.025021-11.50366 83.57583-11.50366 114.731575-0.15251z" fill="#7890FA" p-id="25018"></path><path d="M760.663149 434.502809l622.679149 245.781787c31.003234 13.115915 31.003234 32.768 0 45.883915l-622.679149 245.651063c-31.025021 13.246638-83.57583 13.246638-114.731575 0L23.274213 726.168511c-31.025021-13.246638-31.025021-32.768 0-45.883915l622.657361-245.781787c31.025021-11.50366 83.57583-11.50366 114.731575 0z" fill="#7890FA" p-id="25019"></path><path d="M760.663149 418.18417l622.679149 245.803575c31.003234 12.963404 31.003234 32.746213 0 45.862127l-622.679149 245.672851c-31.025021 13.224851-83.57583 13.224851-114.731575 0L23.274213 709.719149c-31.025021-13.246638-31.025021-32.768 0-45.883915l622.657361-245.651064c31.025021-11.50366 83.57583-11.50366 114.731575 0z" fill="#7890FA" p-id="25020"></path><path d="M760.663149 401.734809l622.679149 245.803574c31.003234 13.224851 31.003234 32.746213 0 45.862128l-622.679149 245.672851c-31.025021 13.224851-83.57583 13.224851-114.731575 0L23.274213 693.400511c-31.025021-13.115915-31.025021-32.768 0-45.862128l622.657361-245.803574c31.025021-11.50366 83.57583-11.50366 114.731575 0z" fill="#7890FA" p-id="25021"></path><path d="M760.663149 385.41617l622.679149 245.803575c31.003234 13.224851 31.003234 32.768 0 45.862127l-622.679149 245.672851c-31.025021 12.963404-83.57583 12.963404-114.731575 0L23.274213 677.081872c-31.025021-12.963404-31.025021-32.768 0-45.862127L645.931574 385.41617c31.025021-11.50366 83.57583-11.50366 114.731575 0z" fill="#7890FA" p-id="25022"></path><path d="M760.663149 369.097532l622.679149 244.191319c31.003234 13.246638 31.003234 32.768 0 45.883915l-622.679149 244.191319c-31.025021 13.224851-83.57583 13.224851-114.731575 0L23.274213 659.172766c-31.025021-13.246638-31.025021-32.768 0-45.883915l622.657361-244.191319c31.025021-11.634383 83.57583-11.634383 114.731575 0z" fill="#7890FA" p-id="25023"></path><path d="M760.663149 352.517447l622.679149 244.060596c31.003234 13.246638 31.003234 32.768 0 45.862127L760.641362 886.522553c-31.025021 13.246638-83.57583 13.246638-114.731575 0L23.274213 642.44017c-31.025021-13.224851-31.025021-32.746213 0-45.862127L645.931574 352.517447c31.025021-11.372936 83.57583-11.372936 114.731575 0z" fill="#7890FA" p-id="25024"></path><path d="M760.663149 336.198809l622.679149 244.191319c31.003234 13.115915 31.003234 32.768 0 45.883915l-622.679149 244.060595c-31.025021 13.224851-83.57583 13.224851-114.731575 0L23.274213 626.274043c-31.025021-13.246638-31.025021-32.768 0-45.883915l622.657361-244.191319c31.025021-11.372936 83.57583-11.372936 114.731575 0z" fill="#7890FA" p-id="25025"></path><path d="M760.663149 319.749447l622.679149 244.191319c31.003234 13.246638 31.003234 32.768 0 45.883915l-622.679149 244.322042c-31.025021 12.963404-83.57583 12.963404-114.731575 0L23.274213 609.824681c-31.025021-13.246638-31.025021-32.768 0-45.883915L645.931574 319.618723c31.025021-11.372936 83.57583-11.372936 114.731575 0.130724z" fill="#D4CDA7" p-id="25026"></path><path d="M760.663149 319.749447l622.679149 244.191319c31.003234 13.246638 31.003234 32.768 0 45.883915l-622.679149 244.322042c-31.025021 12.963404-83.57583 12.963404-114.731575 0L23.274213 609.824681c-31.025021-13.246638-31.025021-32.768 0-45.883915L645.931574 319.618723c31.025021-11.372936 83.57583-11.372936 114.731575 0.130724z" fill="#4868F8" p-id="25027"></path><path d="M701.96834 6.274723L380.998809 561.805617 708.657021 695.012766z" fill="#E6B52C" p-id="25028"></path><path d="M708.657021 695.012766l354.391149-161.813787L701.96834 6.274723z" fill="#FFCB3C" p-id="25029"></path></svg>