<?xml version="1.0" standalone="no"?><!DOCTYPE svg PUBLIC "-//W3C//DTD SVG 1.1//EN" "http://www.w3.org/Graphics/SVG/1.1/DTD/svg11.dtd"><svg t="1728452999648" class="icon" viewBox="0 0 1024 1024" version="1.1" xmlns="http://www.w3.org/2000/svg" p-id="12875" xmlns:xlink="http://www.w3.org/1999/xlink" width="200" height="200"><path d="M606.72 727.466667L208.213333 328.96 133.12 256 128 247.466667A128 128 0 0 0 85.333333 341.333333v341.333334a128 128 0 0 0 128 128h384a125.44 125.44 0 0 0 70.826667-21.76zM896 305.066667a72.533333 72.533333 0 0 0-78.933333 12.8l-91.733334 85.333333V341.333333a128 128 0 0 0-128-128H334.08l55.04 55.04 281.173333 281.173334 85.333334 85.333333 85.333333 85.333333a73.813333 73.813333 0 0 0 25.6 4.693334 71.68 71.68 0 0 0 29.44-6.4 68.266667 68.266667 0 0 0 42.666667-63.146667V368.213333a68.266667 68.266667 0 0 0-42.666667-63.146666zM725.333333 665.173333l-85.333333-85.333333L358.826667 298.666667l-85.333334-85.333334-72.533333-72.96a42.666667 42.666667 0 0 0-60.586667 60.586667l23.04 22.613333L238.506667 298.666667l398.506666 398.506666 62.293334 62.293334 123.733333 124.16a42.666667 42.666667 0 0 0 60.586667 0 42.666667 42.666667 0 0 0 0-60.586667z" fill="#231F20" p-id="12876"></path></svg>