<?xml version="1.0" standalone="no"?><!DOCTYPE svg PUBLIC "-//W3C//DTD SVG 1.1//EN" "http://www.w3.org/Graphics/SVG/1.1/DTD/svg11.dtd"><svg t="1728453057267" class="icon" viewBox="0 0 1638 1024" version="1.1" xmlns="http://www.w3.org/2000/svg" p-id="13868" xmlns:xlink="http://www.w3.org/1999/xlink" width="319.921875" height="200"><path d="M997.376 19.046H156.365s-140.8 0-140.8 136.602v691.814c0 136.704 140.8 136.704 140.8 136.704h841.011s140.8 0 140.8-136.704V159.744c0-140.698-140.8-140.698-140.8-140.698z m575.795 70.452c-12.493-4.096-24.883-4.096-33.177 4.096l-277.504 215.45c-8.295 8.191-12.493 16.588-12.493 24.78v343.86c0 8.294 4.096 20.684 12.493 24.882l277.504 215.45c4.096 4.096 12.39 8.192 20.684 8.192 4.096 0 8.295 0 16.59-4.096 12.492-4.096 16.588-16.589 16.588-28.98V118.478a31.13 31.13 0 0 0-20.685-28.98z" p-id="13869"></path></svg>